<svg xmlns="http://www.w3.org/2000/svg" version="1.1" id="svg8092" x="0px" y="0px" width="138px" height="40px" viewBox="0 0 79 23" enable-background="new 0 0 79 23" xml:space="preserve" class="header b2p-yellow-header" preserveAspectRatio="xMidYMid meet"><metadata id="metadata8140"/><defs id="defs8138"/><style type="text/css">.invert .text {fill: #FFF;} .Storefront_2017_B2P_variant_1.header .img {fill:#FFF} .b2p-yellow-header.header .img {fill:#FFF} .text{fill:	#00355F;} .img{fill:	#EEC218;} .invert .img {fill:none;}</style><g id="logo" transform="translate(-1.7904383e-4,9.9926053e-4)" class="text"><g id="g8095"><g id="g8097"><path id="path8099" d="m 37.812,17.422 -2.443,0 c -0.011,0 -0.018,-0.002 -0.024,-0.01 l -2.105,-2.57 -2.106,2.57 c -0.005,0.008 -0.014,0.01 -0.023,0.01 l -1.957,0 c -0.012,0 -0.021,-0.006 -0.03,-0.019 -0.004,-0.007 -0.003,-0.021 0.004,-0.03 L 32.23,13.564 29.165,9.792 C 29.156,9.78 29.156,9.768 29.16,9.756 29.165,9.749 29.177,9.738 29.186,9.738 l 2.445,0 c 0.007,0 0.017,0.004 0.023,0.014 l 1.847,2.29 1.879,-2.291 c 0.005,-0.009 0.015,-0.013 0.023,-0.013 l 1.992,0 c 0.012,0 0.024,0.011 0.029,0.018 0.005,0.012 0.004,0.025 -0.005,0.036 l -2.909,3.494 3.324,4.087 c 0.007,0.01 0.011,0.023 0.004,0.03 -0.005,0.013 -0.017,0.019 -0.026,0.019 l 0,0 z"/><path id="path8101" d="m 54.583,14.061 c -0.006,0.008 -0.017,0.015 -0.027,0.015 l -5.592,0 c 0.117,1.302 0.962,2.043 2.33,2.043 0.843,0 1.738,-0.288 3.002,-0.96 0.023,-0.013 0.047,0.006 0.047,0.03 l -0.003,1.72 c -0.002,0.014 -0.008,0.023 -0.018,0.026 -1.177,0.496 -2.358,0.834 -3.286,0.834 l 0,0 c -2.408,0 -4.154,-1.755 -4.154,-4.172 0,-2.417 1.746,-4.171 4.154,-4.171 2.196,0 3.607,1.48 3.607,3.516 0,0.329 -0.058,1.095 -0.06,1.119 z m -3.548,-2.969 c -1.082,0 -1.822,0.656 -2.032,1.798 l 3.681,0 0,-0.074 c 0,-0.913 -0.673,-1.724 -1.649,-1.724 l 0,0 z"/><path id="path8103" d="m 64.937,17.422 c -0.02,0 -0.032,-0.012 -0.032,-0.031 l 0,-7.62 c 0,-0.016 0.011,-0.028 0.024,-0.032 l 2.02,0 c 0.017,0.004 0.025,0.016 0.025,0.032 l 0,7.62 c 0,0.02 -0.013,0.031 -0.029,0.031 l -2.008,0 z m 1.004,-9.27 c -0.686,0 -1.244,-0.55 -1.244,-1.225 0,-0.696 0.558,-1.26 1.244,-1.26 0.686,0 1.244,0.564 1.244,1.26 0.001,0.676 -0.558,1.225 -1.244,1.225 l 0,0 z"/><path id="path8105" d="m 42.055,9.427 c -0.57,0 -1.146,0.104 -1.749,0.312 l -2.01,0 c -0.017,0 -0.028,0.014 -0.028,0.032 l 0,12.496 c 0.606,-0.083 1.35,-0.299 2.073,-0.813 l 0,-3.801 c 0.495,0.07 0.904,0.117 1.3,0.117 2.751,0 4.533,-1.65 4.533,-4.205 -0.002,-2.437 -1.696,-4.138 -4.119,-4.138 z m -0.55,6.847 c -0.364,0 -0.737,-0.052 -1.165,-0.166 l 0.004,-4.89 c 0.502,-0.159 0.939,-0.235 1.371,-0.235 1.4,0 2.339,1.033 2.339,2.567 0,1.656 -1.001,2.724 -2.549,2.724 z"/><path id="path8107" d="m 61.26,5.704 0,3.989 C 60.67,9.525 60.151,9.446 59.627,9.446 c -2.396,0 -4.204,1.807 -4.204,4.205 0,2.387 1.595,4.119 3.791,4.119 0.76,0 1.472,-0.191 2.309,-0.622 l -0.002,0.688 c 0.552,-0.105 1.188,-0.326 1.812,-0.77 l 0,-12.178 C 62.718,4.97 61.99,5.175 61.26,5.704 Z m 0,9.938 c -0.63,0.33 -1.192,0.487 -1.72,0.487 -1.247,0 -1.994,-0.881 -1.994,-2.356 0,-1.707 0.954,-2.811 2.429,-2.811 0.407,0 0.804,0.1 1.285,0.318 l 0,4.362 z"/><path id="path8109" d="m 76.047,9.646 c 0,-0.047 -0.041,-0.085 -0.087,-0.085 l -1.631,0.003 c -0.049,0 -0.09,0.041 -0.09,0.087 l 0,0.279 -0.041,0 C 73.444,9.599 72.801,9.446 72.169,9.446 c -2.258,0 -4.029,1.875 -4.029,4.273 0,2.424 1.585,4.05 3.943,4.05 0.63,0 1.439,-0.043 2.196,-0.914 l 0,0.98 c 0.535,-0.114 1.167,-0.341 1.766,-0.772 l 0.002,-7.417 z m -2.075,5.98 c -0.609,0.351 -1.131,0.521 -1.597,0.521 -1.334,0 -2.134,-0.878 -2.134,-2.359 0,-1.681 0.942,-2.81 2.342,-2.81 0.375,0 0.83,0.144 1.389,0.439 l 0,4.209 z"/><path id="path8111" d="m 23.565,15.515 5.07,-0.001 c -0.076,0.567 -0.268,1.229 -0.708,1.906 l -4.351,0 -0.866,-0.001 c -0.018,0 -0.037,0.001 -0.058,0.001 -0.646,0 -1.177,-0.5 -1.24,-1.133 -0.003,-0.009 -0.007,-0.019 -0.008,-0.027 l 0,-5.193 0,-4.807 c 0,-0.008 0.005,-0.019 0.008,-0.024 0.063,-0.634 0.594,-1.136 1.24,-1.136 0.021,0 0.04,0.002 0.058,0.002 L 28.624,5.101 C 28.546,5.666 28.355,6.346 27.915,7.02 l -4.35,0 0,2.723 4.307,0 c 0.018,0 0.031,0.013 0.031,0.03 l 0,1.888 c 0,0.016 -0.013,0.03 -0.031,0.03 l -4.307,0 0,3.823 0,0.001 z"/></g><g id="g8113"><path id="path8115" d="m 17.218,15.738 c -0.513,0 -0.952,0.386 -0.952,0.969 0,0.55 0.396,0.965 0.952,0.965 0.507,0 0.947,-0.384 0.947,-0.965 0,-0.583 -0.44,-0.969 -0.947,-0.969 z m 0,1.84 c -0.501,0 -0.811,-0.392 -0.811,-0.871 0,-0.514 0.355,-0.871 0.811,-0.871 0.452,0 0.806,0.357 0.806,0.871 0,0.513 -0.354,0.871 -0.806,0.871 z"/><path id="path8117" d="m 17.668,16.462 c 0,-0.231 -0.142,-0.329 -0.418,-0.329 l -0.435,0 0,1.146 0.189,0 0,-0.49 0.176,0 0.297,0.49 0.212,0 -0.321,-0.503 c 0.174,-0.022 0.3,-0.106 0.3,-0.314 z m -0.677,0.165 0,-0.353 0.238,0 c 0.121,0 0.263,0.017 0.263,0.164 0,0.175 -0.132,0.188 -0.281,0.188 l -0.22,0 z"/></g><g id="g8119"><path id="path8121" d="m 77.714,9.167 c -0.513,0 -0.952,0.386 -0.952,0.969 0,0.55 0.396,0.965 0.952,0.965 0.505,0 0.946,-0.384 0.946,-0.965 0,-0.583 -0.44,-0.969 -0.946,-0.969 z m 0,1.84 c -0.501,0 -0.812,-0.392 -0.812,-0.871 0,-0.514 0.355,-0.872 0.812,-0.872 0.451,0 0.805,0.358 0.805,0.872 10e-4,0.513 -0.354,0.871 -0.805,0.871 z"/><path id="path8123" d="m 78.164,9.891 c 0,-0.231 -0.143,-0.33 -0.418,-0.33 l -0.435,0 0,1.146 0.188,0 0,-0.49 0.177,0 0.297,0.49 0.212,0 -0.32,-0.503 c 0.171,-0.02 0.299,-0.105 0.299,-0.313 z m -0.678,0.165 0,-0.352 0.238,0 c 0.121,0 0.263,0.017 0.263,0.163 0,0.175 -0.132,0.188 -0.28,0.188 l -0.221,0 z"/></g><g id="g8125"><path id="path8127" d="M 10.678,7.012 10.311,5.971 7.192,1.804 7.752,1.664 13.129,6.312 16.293,5.406 C 16.665,5.311 17.086,5.29 17.408,5.292 16.414,3.147 14.594,1.387 12.192,0.531 7.442,-1.162 2.22,1.32 0.53,6.071 0.008,7.542 -0.116,9.058 0.104,10.5 L 7.683,7.868 10.678,7.012 Z"/><path id="path8129" d="m 17.742,6.114 c -0.278,0.18 -0.686,0.417 -1.091,0.547 l -3.171,0.905 -2.116,6.792 -0.55,0.179 0.448,-5.187 -0.25,-1.078 -2.97,0.848 -7.854,1.849 c 0.623,3.021 2.762,5.654 5.881,6.766 4.75,1.693 9.97,-0.789 11.66,-5.538 0.728,-2.048 0.681,-4.181 0.013,-6.083 z"/><path id="path8131" d="m 11.013,8.271 0.25,1.078 -0.448,5.187 0.55,-0.179 2.116,-6.792 3.171,-0.905 C 17.057,6.531 17.465,6.293 17.743,6.113 17.645,5.834 17.534,5.56 17.41,5.292 17.088,5.29 16.667,5.311 16.295,5.406 L 13.131,6.312 7.752,1.664 7.192,1.804 10.311,5.971 10.678,7.012 7.683,7.868 0.104,10.5 c 0.024,0.157 0.051,0.314 0.083,0.469 L 8.042,9.12 11.013,8.271 Z" class="img"/></g></g></g></svg>